<svg width="25" height="25" viewBox="0 0 958 958" fill="none" xmlns="http://www.w3.org/2000/svg">
<g clip-path="url(#clip0_162_1531)">
<path d="M127.733 159.666C92.447 159.666 63.8667 188.246 63.8667 223.533V734.466C63.8667 769.752 92.447 798.333 127.733 798.333H454.426C449.732 777.768 447.067 756.436 447.067 734.466C447.067 723.673 447.756 713.039 448.938 702.533H159.667V478.999L232.764 405.902C262.941 375.725 311.859 375.725 342.036 405.902L502.014 565.88C554.257 493.999 638.794 447.066 734.467 447.066C793.575 447.066 848.469 464.935 894.133 495.527V223.533C894.133 188.246 865.553 159.666 830.267 159.666H127.733ZM734.467 255.466C769.753 255.466 798.333 284.046 798.333 319.333C798.333 354.619 769.753 383.199 734.467 383.199C699.18 383.199 670.6 354.619 670.6 319.333C670.6 284.046 699.18 255.466 734.467 255.466ZM734.467 510.933C611.012 510.933 510.933 611.012 510.933 734.466C510.933 857.92 611.012 957.999 734.467 957.999C857.921 957.999 958 857.92 958 734.466C958 611.012 857.921 510.933 734.467 510.933ZM734.467 606.733C752.094 606.733 766.4 621.007 766.4 638.666V702.533H830.267C847.894 702.533 862.2 716.807 862.2 734.466C862.2 752.125 847.894 766.399 830.267 766.399H766.4V830.266C766.4 847.925 752.094 862.199 734.467 862.199C716.84 862.199 702.533 847.925 702.533 830.266V766.399H638.667C621.04 766.399 606.733 752.125 606.733 734.466C606.733 716.807 621.04 702.533 638.667 702.533H702.533V638.666C702.533 621.007 716.84 606.733 734.467 606.733Z" fill="#858585"/>
</g>
<defs>
<clipPath id="clip0_162_1531">
<rect width="958" height="958" fill="white"/>
</clipPath>
</defs>
</svg>
