<svg width="25" height="25" viewBox="0 0 327 328" fill="none" xmlns="http://www.w3.org/2000/svg">
<path d="M163.5 33.1992C91.2657 33.1992 32.7 91.7649 32.7 163.999C32.7 236.234 91.2657 294.799 163.5 294.799C235.734 294.799 294.3 236.234 294.3 163.999C294.3 91.7649 235.734 33.1992 163.5 33.1992ZM236.606 139.006L154.202 221.41C152.153 223.459 149.384 224.603 146.496 224.603C143.607 224.603 140.828 223.459 138.79 221.41L101.152 183.772C96.8901 179.51 96.8901 172.621 101.152 168.359C105.414 164.097 112.303 164.097 116.565 168.359L146.496 198.291L221.194 123.593C225.456 119.331 232.344 119.331 236.606 123.593C240.868 127.855 240.868 134.744 236.606 139.006Z" fill="#75F94C"/>
</svg>
