<svg width="1063" height="1105" viewBox="0 0 1063 1105" fill="none" xmlns="http://www.w3.org/2000/svg">
<rect width="1063" height="1105" fill="#00d362"/>
<path d="M141.733 184.166C102.58 184.166 70.8667 217.132 70.8667 257.833V847.166C70.8667 887.867 102.58 920.833 141.733 920.833H921.267C960.421 920.833 992.133 887.867 992.133 847.166V257.833C992.133 217.132 960.421 184.166 921.267 184.166H141.733ZM336.617 294.666C341.511 294.666 346.423 295.713 351.011 297.831L510.461 371.498C528.355 379.786 536.392 401.529 528.455 420.13C522.573 433.832 509.604 441.999 495.997 441.999C491.179 441.999 486.349 441.007 481.672 438.834L336.617 371.858L191.561 438.834C173.703 447.158 152.751 438.73 144.778 420.13C136.841 401.529 144.878 379.749 162.772 371.498L322.222 297.831C326.828 295.713 331.722 294.666 336.617 294.666ZM673.233 441.999H850.4C869.995 441.999 885.833 458.464 885.833 478.833C885.833 499.202 869.995 515.666 850.4 515.666H673.233C653.639 515.666 637.8 499.202 637.8 478.833C637.8 458.464 653.639 441.999 673.233 441.999ZM257.999 515.666H415.234C431.498 515.666 445.697 527.188 449.63 543.579L460.633 589.333L485.686 615.375C492.347 622.3 496.067 631.656 496.067 641.417V755.083C496.067 765.249 488.13 773.499 478.35 773.499H442.917C433.137 773.499 425.2 765.249 425.2 755.083V736.666H248.033V755.083C248.033 765.249 240.096 773.499 230.317 773.499H194.883C185.104 773.499 177.167 765.249 177.167 755.083V641.417C177.167 631.656 180.886 622.263 187.548 615.375L212.6 589.333L223.604 543.579C227.537 527.188 241.735 515.666 257.999 515.666ZM673.233 589.333H850.4C869.995 589.333 885.833 605.797 885.833 626.166C885.833 646.535 869.995 662.999 850.4 662.999H673.233C653.639 662.999 637.8 646.535 637.8 626.166C637.8 605.797 653.639 589.333 673.233 589.333ZM212.6 626.166V662.999H283.467V626.166H212.6ZM389.767 626.166V662.999H460.633V626.166H389.767Z" fill="white"/>
</svg>
