<svg width="763" height="764" viewBox="0 0 763 764" fill="none" xmlns="http://www.w3.org/2000/svg">
<path d="M520.239 102.232C432.366 102.232 381.5 178.532 381.5 178.532C381.5 178.532 330.633 102.232 242.761 102.232C150.819 102.232 76.2998 176.752 76.2998 268.694C76.2998 335.329 108.727 400.667 152.6 459.266V305.699H178.033C192.098 305.699 203.466 317.068 203.466 331.132V422.336L363.518 262.284C373.463 252.34 389.537 252.34 399.481 262.284C409.426 272.229 409.426 288.303 399.481 298.247L300.825 396.903L315.729 411.807L439.818 287.718C449.763 277.773 465.837 277.773 475.781 287.718C480.741 292.677 483.233 299.188 483.233 305.699C483.233 312.21 480.741 318.721 475.781 323.68L351.692 447.77L366.596 462.674L465.252 364.018C475.196 354.073 491.27 354.073 501.215 364.018C506.174 368.977 508.666 375.488 508.666 381.999C508.666 388.51 506.174 395.021 501.215 399.98L402.559 498.636L417.463 513.54L465.252 465.751C475.196 455.807 491.27 455.807 501.215 465.751C506.174 470.711 508.666 477.221 508.666 483.732C508.666 490.243 506.174 496.754 501.215 501.714L351.336 651.592C359.805 657.874 370.157 661.766 381.5 661.766C392.996 661.766 403.5 657.798 412.02 651.363L412.122 651.516C497.959 584.22 686.7 429.966 686.7 268.694C686.7 176.752 612.18 102.232 520.239 102.232Z" fill="white"/>
</svg>
