<svg width="90" height="90" viewBox="0 0 90 90" fill="none" xmlns="http://www.w3.org/2000/svg">
<path d="M45 9C25.119 9 9 25.119 9 45C9 64.881 25.119 81 45 81C64.881 81 81 64.881 81 45C81 25.119 64.881 9 45 9ZM59.121 41.121C57.948 42.294 56.052 42.294 54.879 41.121L48 34.242V63C48 64.656 46.659 66 45 66C43.341 66 42 64.656 42 63V34.242L35.121 41.121C33.948 42.294 32.052 42.294 30.879 41.121C29.706 39.948 29.706 38.052 30.879 36.879L42.879 24.879C43.464 24.294 44.232 24 45 24C45.768 24 46.536 24.294 47.121 24.879L59.121 36.879C60.294 38.052 60.294 39.948 59.121 41.121Z" fill="#CC0036"/>
</svg>
